# xmcd
#
# Track frame offsets:
#	150
#	9830
#	20682
#	32364
#	49859
#	64446
#	81133
#	101777
#	113864
#	128498
#	136598
#	149698
#	161127
#	175137
#
# Disc length: 2535 seconds
#
# Revision: 1
# Processed by: cddbd v1.5.1PL0 Copyright (c) Steve Scherf et al.
# Submitted via: EasyCDDAExtractor 6.5.4.1
#
DISCID=b809e50e
DTITLE=Johnny Cash - American III Solitary Man
DYEAR=2000
DGENRE=Country
TTITLE0=I Won't Back Down
TTITLE1=Solitary Man
TTITLE2=That Lucky Old Sun (Just Rolls Around Heaven All Day)
TTITLE3=One
TTITLE4=Nobody
TTITLE5=I See A Darkness
TTITLE6=The Mercy Seat
TTITLE7=Would You Lay With Me (In A Field Of Stone)
TTITLE8=Field Of Diamonds
TTITLE9=Before My Time
TTITLE10=Country Trash
TTITLE11=Mary Of The Wild Moor
TTITLE12=I'm Leavin' Now
TTITLE13=Wayfaring Stranger
EXTD=
EXTT0=
EXTT1=
EXTT2=
EXTT3=
EXTT4=
EXTT5=
EXTT6=
EXTT7=
EXTT8=
EXTT9=
EXTT10=
EXTT11=
EXTT12=
EXTT13=
PLAYORDER=
